{"title":"Passenger.Side.2009.DvDRip.H264.Feel-Free","uid":5917501,"size":814411231,"categoryP":"video","categoryS":"movies","magnet":"?xt=urn:btih:5dfb3a8ca97d3d25bbe0697a7f2830546deb0643&amp;dn=Passenger.Side.2009.DvDRip.H264.Feel-Free&amp;tr=udp%3A%2F%2Ftracker.openbittorrent.com%3A80&amp;tr=udp%3A%2F%2Fopen.demonii.com%3A1337&amp;tr=udp%3A%2F%2Ftracker.coppersurfer.tk%3A6969&amp;tr=udp%3A%2F%2Fexodus.desync.com%3A6969","seeders":0,"leechers":1,"uploader":"deffjam555","files":6,"time":1288281924,"description":"cover\n\nGenre:Drama\nLanguage:English\nIMDb:http://www.imdb.com/title/tt1227170/\nSource:DVD\n\nGeneral\nComplete name :Passenger.Side.2009.DvDRip.H264.Feel-Free\nFormat : MPEG-4\nFormat profile : Base Media\nCodec ID : mp42\nFile size : 776 MiB\nDuration : 1h 25mn\nOverall bit rate : 1 276 Kbps\nVideo #1\nCodec ID : avc1\nCodec ID/Info : Advanced Video Coding\nDuration : 1h 25mn\nBit rate mode : Variable\nBit rate : 699 Kbps\nWidth : 720 pixels\nHeight : 384 pixels\nDisplay aspect ratio : 1.875\nFrame rate mode : Constant\nFrame rate : 23.976 fps\nResolution : 24 bits\nColorimetry : 4:2:0\nScan type : Progressive\nBits/(Pixel*Frame) : 0.105\nStream size : 425 MiB (55%)\nAudio #2\nID : 2\nFormat : AAC\nFormat/Info : Advanced Audio Codec\nFormat version : Version 4\nFormat profile : LC\nFormat settings, SBR : No\nCodec ID : 40\nDuration : 1h 25mn\nBit rate mode : Constant\nBit rate : 576 Kbps\nChannel(s) : 6 channels\nChannel positions : Front: L C R, Rear: L R, LFE\nSampling rate : 48.0 KHz\nResolution : 16 bits\nStream size : 349 MiB (45%)\n\nPlot:\nTwo brothers spend the day driving around Los Angeles county looking for the meaning of their lives, or cheap street drugs, depending on who you happen to believe.\n\nscreens &lt;a href=&quot;\nhttp://img12.imageshack.us/img12/7490/passengerside2009dvdrip.jpg&quot; rel=&quot;nofollow&quot; target=&quot;_NEW&quot;&gt;\nhttp://img12.imageshack.us/img12/7490/passengerside2009dvdrip.jpg&lt;/a&gt; &lt;a href=&quot;\nhttp://img149.imageshack.us/img149/7490/passengerside2009dvdrip.jpg&quot; rel=&quot;nofollow&quot; target=&quot;_NEW&quot;&gt;\nhttp://img149.imageshack.us/img149/7490/passengerside2009dvdrip.jpg&lt;/a&gt; &lt;a href=&quot;\nhttp://img29.imageshack.us/img29/7490/passengerside2009dvdrip.jpg&quot; rel=&quot;nofollow&quot; target=&quot;_NEW&quot;&gt;\nhttp://img29.imageshack.us/img29/7490/passengerside2009dvdrip.jpg&lt;/a&gt;","torrent":{"xt":"urn:btih:5dfb3a8ca97d3d25bbe0697a7f2830546deb0643","amp;dn":"Passenger.Side.2009.DvDRip.H264.Feel-Free","amp;tr":["udp%3A%2F%2Ftracker.openbittorrent.com%3A80","udp%3A%2F%2Fopen.demonii.com%3A1337","udp%3A%2F%2Ftracker.coppersurfer.tk%3A6969","udp%3A%2F%2Fexodus.desync.com%3A6969"],"infoHash":"5dfb3a8ca97d3d25bbe0697a7f2830546deb0643","infoHashBuffer":{"type":"Buffer","data":[93,251,58,140,169,125,61,37,187,224,105,122,127,40,48,84,109,235,6,67]},"announce":[],"urlList":[]}}